<svg width="31" height="31" viewBox="0 0 31 31" fill="none" xmlns="http://www.w3.org/2000/svg">
<path d="M22.0342 26.5781H8.95605C8.82759 26.5781 8.70439 26.5271 8.61355 26.4363C8.52271 26.3454 8.47168 26.2222 8.47168 26.0938L7.50293 8.65625H23.4728L22.504 26.0938C22.5041 26.2197 22.455 26.3408 22.3673 26.4312C22.2796 26.5217 22.1601 26.5744 22.0342 26.5781Z" stroke="#DD2A27" stroke-width="2"/>
<path d="M24.7031 8.6515H6.29688C6.16125 8.6515 6.05469 8.574 6.05469 8.48197L6.50516 6.37494C6.52463 6.32797 6.55868 6.2885 6.60228 6.26234C6.64588 6.23618 6.69673 6.22471 6.74734 6.22963H24.2527C24.3033 6.22471 24.3541 6.23618 24.3977 6.26234C24.4413 6.2885 24.4754 6.32797 24.4948 6.37494L24.9453 8.48197C24.9453 8.574 24.8388 8.6515 24.7031 8.6515Z" stroke="#DD2A27" stroke-width="2"/>
<path d="M11.625 11.3535V23.4628" stroke="#DD2A27" stroke-width="2"/>
<path d="M15.5 11.3535V23.4628" stroke="#DD2A27" stroke-width="2"/>
<path d="M19.375 11.3535V23.4628" stroke="#DD2A27" stroke-width="2"/>
<path d="M12.4629 6.22836V3.66602C12.4629 3.53755 12.5139 3.41435 12.6048 3.32351C12.6956 3.23268 12.8188 3.18164 12.9473 3.18164H18.0526C18.1811 3.18164 18.3043 3.23268 18.3951 3.32351C18.4859 3.41435 18.537 3.53755 18.537 3.66602V6.22836" stroke="#DD2A27" stroke-width="2"/>
</svg>
