<svg width="30" height="30" viewBox="0 0 30 30" fill="none" xmlns="http://www.w3.org/2000/svg">
<path d="M8.35316 24.9195L5.20784 25.2757C5.13752 25.284 5.06623 25.2762 4.99934 25.253C4.93245 25.2298 4.87168 25.1917 4.82161 25.1417C4.77154 25.0916 4.73347 25.0308 4.71025 24.9639C4.68702 24.897 4.67926 24.8258 4.68753 24.7554L5.04847 21.6289C5.06132 21.524 5.10922 21.4265 5.18441 21.3523L21.5907 4.99761C21.6777 4.91045 21.7811 4.8413 21.8949 4.79412C22.0087 4.74694 22.1307 4.72266 22.2539 4.72266C22.3771 4.72266 22.4991 4.74694 22.6129 4.79412C22.7268 4.8413 22.8302 4.91045 22.9172 4.99761L25.0313 7.1023C25.1192 7.18945 25.1889 7.29314 25.2365 7.40738C25.2841 7.52163 25.3086 7.64416 25.3086 7.76793C25.3086 7.89169 25.2841 8.01422 25.2365 8.12847C25.1889 8.24271 25.1192 8.3464 25.0313 8.43355L8.62503 24.7836C8.55202 24.8578 8.45637 24.9056 8.35316 24.9195Z" stroke="black" stroke-width="2"/>
<path d="M22.8232 10.6352L19.3357 7.24609" stroke="black" stroke-width="2"/>
</svg>
